<svg xmlns="http://www.w3.org/2000/svg" width="43" height="43" viewBox="0 0 43 43">
  <path fill="#000000" fill-rule="evenodd" d="M21.5,43 C33.3741221,43 43,33.3741221 43,21.5 C43,9.62587788 33.3741221,0 21.5,0 C9.62587788,0 0,9.62587788 0,21.5 C0,33.3741221 9.62587788,43 21.5,43 Z M21.5,41.0454545 C32.2946565,41.0454545 41.0454545,32.2946565 41.0454545,21.5 C41.0454545,10.7053435 32.2946565,1.95454545 21.5,1.95454545 C10.7053435,1.95454545 1.95454545,10.7053435 1.95454545,21.5 C1.95454545,32.2946565 10.7053435,41.0454545 21.5,41.0454545 Z M17.5909091,16.6136364 L17.5909091,17.5909091 L19.5454545,17.5909091 L19.5454545,32.25 L17.5909091,32.25 L17.5909091,33.2272727 L25.4090909,33.2272727 L25.4090909,32.25 L23.4545455,32.25 L23.4545455,16.6136364 L17.5909091,16.6136364 Z M21.0113636,13.6818182 C22.3606957,13.6818182 23.4545455,12.5879684 23.4545455,11.2386364 C23.4545455,9.8893043 22.3606957,8.79545455 21.0113636,8.79545455 C19.6620316,8.79545455 18.5681818,9.8893043 18.5681818,11.2386364 C18.5681818,12.5879684 19.6620316,13.6818182 21.0113636,13.6818182 Z"/>
</svg>
